<svg id="Слой_1" data-name="Слой 1" xmlns="http://www.w3.org/2000/svg" viewBox="0 0 30 30"><defs><style>.cls-1{fill:#2e4161;}</style></defs><title>ico_download</title><path class="cls-1" d="M28.29,17.59A1.68,1.68,0,0,1,30,19.26v9.07A1.68,1.68,0,0,1,28.29,30H1.78A1.74,1.74,0,0,1,0,28.33V19.26a1.74,1.74,0,0,1,1.78-1.67,1.68,1.68,0,0,1,1.71,1.67V26.6H26.58V19.26a1.68,1.68,0,0,1,1.71-1.67Zm0,0"/><path class="cls-1" d="M13.83,21.36l-7-6.79a1.58,1.58,0,0,1,0-2.35,1.68,1.68,0,0,1,2.41,0l4.06,3.89V1.67a1.71,1.71,0,0,1,3.42,0V16.11l4-3.89a1.76,1.76,0,0,1,2.47,0,1.58,1.58,0,0,1,0,2.35l-7,6.79a1.72,1.72,0,0,1-2.41,0Zm0,0"/></svg>