<?xml version="1.0" encoding="utf-8"?>
<!-- Generator: Adobe Illustrator 21.0.0, SVG Export Plug-In . SVG Version: 6.00 Build 0)  -->
<svg version="1.1" id="Слой_1" xmlns="http://www.w3.org/2000/svg" xmlns:xlink="http://www.w3.org/1999/xlink" x="0px" y="0px"
	 viewBox="0 0 20 18.4" style="enable-background:new 0 0 20 18.4;" xml:space="preserve">
<style type="text/css">
	.st0{fill:#2E4161;}
</style>
<title>mi-donate</title>
<g>
	<path class="st0" d="M15.1,8.6H3.3v9.6h16.3V8.6H15.1z M18.3,15l-0.5,0.5c-0.1,0-0.1,0-0.2,0c-0.5,0-0.9,0.4-0.9,0.9
		c0,0.1,0,0.1,0,0.2l-0.5,0.5H6.5L6,16.6c0-0.1,0-0.1,0-0.2c0-0.5-0.4-0.9-0.9-0.9c-0.1,0-0.1,0-0.2,0L4.4,15v-3.1l0.5-0.5
		c0.1,0,0.1,0,0.2,0C5.6,11.4,6,11,6,10.5c0-0.1,0-0.1,0-0.2l0.5-0.5h9.8l0.5,0.5c0,0.1,0,0.1,0,0.2c0,0.5,0.4,0.9,0.9,0.9
		c0.1,0,0.1,0,0.2,0l0.5,0.5L18.3,15z"/>
	<circle class="st0" cx="16.2" cy="13.4" r="1"/>
	<ellipse class="st0" cx="11.4" cy="13.4" rx="2.9" ry="2.5"/>
	<circle class="st0" cx="6.6" cy="13.4" r="1"/>
	<circle class="st0" cx="14.1" cy="6" r="1"/>
	<path class="st0" d="M3.9,7.5L3.9,7.5l8.6-4.8l0.7,0.2c0,0.1,0,0.1,0.1,0.2c0.2,0.5,0.8,0.6,1.2,0.4c0,0,0,0,0.1,0s0.1-0.1,0.1-0.1
		l0.7,0.2l1.5,2.7L16.7,7c-0.1,0-0.1,0-0.2,0.1c-0.2,0.1-0.4,0.3-0.4,0.5h2.8L17,4.1l-2.1-3.9L11,2.4L4.4,5.8L0.5,7.9L2.2,11V8.6
		c0-0.6,0.5-1.1,1.1-1.1l0,0C3.3,7.5,3.9,7.5,3.9,7.5z"/>
	<path class="st0" d="M8.7,6C8.1,6.4,7.6,6.9,7.3,7.5h5.4c0-0.2-0.1-0.4-0.2-0.7C11.6,5.6,10,5.3,8.7,6z"/>
</g>
</svg>
